<?xml version="1.0" encoding="UTF-8"?>
<svg xmlns="http://www.w3.org/2000/svg" xmlns:xlink="http://www.w3.org/1999/xlink" width="16pt" height="21pt" viewBox="0 0 16 21" version="1.1">
<g id="surface1">
<path style=" stroke:none;fill-rule:evenodd;fill:rgb(17.254902%,17.254902%,16.862745%);fill-opacity:1;" d="M 3.824219 9.265625 C 4.425781 10.46875 4.242188 11.71875 3.410156 12.054688 C 2.574219 12.390625 1.410156 11.691406 0.804688 10.488281 C 0.195312 9.285156 0.382812 8.035156 1.21875 7.699219 C 2.050781 7.359375 3.21875 8.0625 3.824219 9.265625 Z M 3.824219 9.265625 "/>
<path style=" stroke:none;fill-rule:evenodd;fill:rgb(17.254902%,17.254902%,16.862745%);fill-opacity:1;" d="M 12.0625 9.265625 C 11.453125 10.46875 11.640625 11.71875 12.472656 12.054688 C 13.308594 12.390625 14.476562 11.691406 15.078125 10.488281 C 15.683594 9.285156 15.503906 8.035156 14.664062 7.699219 C 13.835938 7.359375 12.664062 8.0625 12.0625 9.265625 Z M 12.0625 9.265625 "/>
<path style=" stroke:none;fill-rule:evenodd;fill:rgb(17.254902%,17.254902%,16.862745%);fill-opacity:1;" d="M 7.367188 6.851562 C 7.675781 8.140625 7.203125 9.332031 6.308594 9.507812 C 5.417969 9.675781 4.4375 8.769531 4.128906 7.476562 C 3.820312 6.1875 4.292969 5.003906 5.1875 4.832031 C 6.078125 4.660156 7.054688 5.566406 7.367188 6.851562 Z M 7.367188 6.851562 "/>
<path style=" stroke:none;fill-rule:evenodd;fill:rgb(17.254902%,17.254902%,16.862745%);fill-opacity:1;" d="M 8.496094 6.851562 C 8.183594 8.148438 8.65625 9.332031 9.554688 9.507812 C 10.441406 9.675781 11.421875 8.769531 11.734375 7.480469 C 12.042969 6.191406 11.574219 5.003906 10.675781 4.832031 C 9.78125 4.660156 8.808594 5.566406 8.496094 6.851562 Z M 8.496094 6.851562 "/>
<path style=" stroke:none;fill-rule:evenodd;fill:rgb(17.254902%,17.254902%,16.862745%);fill-opacity:1;" d="M 6.246094 11.167969 C 6.03125 11.507812 5.019531 12.628906 4.316406 13.003906 C 3.621094 13.386719 2.75 13.945312 2.898438 15.226562 C 3.042969 16.511719 4.507812 17.0625 5.476562 17.011719 C 6.445312 16.960938 8.265625 16.804688 9.566406 16.960938 C 10.867188 17.125 12.507812 17 12.890625 15.777344 C 13.277344 14.550781 12.417969 13.761719 11.746094 13.324219 C 11.074219 12.878906 9.953125 11.550781 9.609375 10.9375 C 9.261719 10.335938 7.507812 9.214844 6.246094 11.167969 Z M 6.246094 11.167969 "/>
</g>
</svg>
